<svg width="14" height="12" viewBox="0 0 14 12" fill="none" xmlns="http://www.w3.org/2000/svg">
<path d="M12 1H2C1.44772 1 1 1.44772 1 2C1 2.55228 1.44772 3 2 3H12C12.5523 3 13 2.55228 13 2C13 1.44772 12.5523 1 12 1Z" stroke="#8600C9"/>
<path d="M10.5 5H3.5C2.94772 5 2.5 5.44772 2.5 6C2.5 6.55228 2.94772 7 3.5 7H10.5C11.0523 7 11.5 6.55228 11.5 6C11.5 5.44772 11.0523 5 10.5 5Z" stroke="#8600C9"/>
<path d="M5.5 9H8.5C9.05229 9 9.5 9.44771 9.5 10C9.5 10.5523 9.05229 11 8.5 11H5.5C4.94772 11 4.5 10.5523 4.5 10C4.5 9.44771 4.94772 9 5.5 9Z" stroke="#8600C9"/>
</svg>
